<svg width="32" height="32" viewBox="0 0 32 32" fill="none" xmlns="http://www.w3.org/2000/svg">
<circle cx="16" cy="16" r="16" fill="#66C56F"/>
<path d="M15.0653 24.8182V6.63636H16.2301V24.8182H15.0653ZM18.1548 12.6378C18.098 12.0649 17.8542 11.6198 17.4233 11.3026C16.9924 10.9853 16.4077 10.8267 15.669 10.8267C15.1671 10.8267 14.7434 10.8977 14.3977 11.0398C14.0521 11.1771 13.7869 11.3688 13.6023 11.6151C13.4223 11.8613 13.3324 12.1406 13.3324 12.4531C13.3229 12.7135 13.3774 12.9408 13.4957 13.1349C13.6188 13.3291 13.7869 13.4972 14 13.6392C14.2131 13.7765 14.4593 13.8973 14.7386 14.0014C15.018 14.1009 15.3163 14.1861 15.6335 14.2571L16.9403 14.5696C17.5748 14.7116 18.1572 14.901 18.6875 15.1378C19.2178 15.3745 19.6771 15.6657 20.0653 16.0114C20.4536 16.357 20.7543 16.7642 20.9673 17.233C21.1851 17.7017 21.2964 18.2391 21.3011 18.8452C21.2964 19.7353 21.0691 20.5071 20.6193 21.1605C20.1742 21.8092 19.5303 22.3134 18.6875 22.6733C17.8494 23.0284 16.8385 23.206 15.6548 23.206C14.4806 23.206 13.4579 23.026 12.5866 22.6662C11.7202 22.3063 11.0431 21.7737 10.5554 21.0682C10.0724 20.358 9.81913 19.4796 9.79545 18.4332H12.7713C12.8045 18.9209 12.9441 19.3281 13.1903 19.6548C13.4413 19.9768 13.7751 20.2206 14.1918 20.3864C14.6132 20.5473 15.089 20.6278 15.6193 20.6278C16.1402 20.6278 16.5923 20.5521 16.9759 20.4006C17.3641 20.2491 17.6648 20.0384 17.8778 19.7685C18.0909 19.4986 18.1974 19.1884 18.1974 18.8381C18.1974 18.5114 18.1004 18.2367 17.9062 18.0142C17.7169 17.7917 17.4375 17.6023 17.0682 17.446C16.7036 17.2898 16.2562 17.1477 15.7259 17.0199L14.142 16.6222C12.9157 16.3239 11.9474 15.8575 11.2372 15.223C10.527 14.5885 10.1742 13.7339 10.179 12.6591C10.1742 11.7784 10.4086 11.009 10.8821 10.3509C11.3603 9.69271 12.0161 9.17898 12.8494 8.80966C13.6828 8.44034 14.6297 8.25568 15.6903 8.25568C16.7699 8.25568 17.7121 8.44034 18.517 8.80966C19.3267 9.17898 19.9564 9.69271 20.4062 10.3509C20.8561 11.009 21.0881 11.7713 21.1023 12.6378H18.1548Z" fill="white"/>
</svg>
